<mxfile host="app.diagrams.net" modified="2023-08-18T07:36:25.674Z" agent="Mozilla/5.0 (X11; Ubuntu; Linux x86_64; rv:109.0) Gecko/20100101 Firefox/115.0" etag="QvUEiHVYk4qFc9PaUE2J" version="21.6.8" type="github">
  <diagram name="Page-1" id="JGEij3_MNOcQkyLMssk6">
    <mxGraphModel dx="2358" dy="1458" grid="1" gridSize="10" guides="1" tooltips="1" connect="1" arrows="1" fold="1" page="1" pageScale="1" pageWidth="1169" pageHeight="827" math="0" shadow="0">
      <root>
        <mxCell id="0" />
        <mxCell id="1" parent="0" />
      </root>
    </mxGraphModel>
  </diagram>
</mxfile>
